<?xml version="1.0" encoding="UTF-8"?>
<svg version="1.1" xmlns="http://www.w3.org/2000/svg" width="200" height="200">
<path d="M0 0 C66 0 132 0 200 0 C200 66 200 132 200 200 C134 200 68 200 0 200 C0 134 0 68 0 0 Z " fill="#FEFEFE" transform="translate(0,0)"/>
<path d="M0 0 C2.00011163 0.22581905 4.00041475 0.45578001 5.9921875 0.74609375 C8.69979064 1.08849492 10.52403254 1.23798373 13 0 C19.11261423 -0.5659828 19.11261423 -0.5659828 22.2109375 1.41015625 C24.9419402 5.36355099 24.42974741 9.06965398 24.25 13.75 C24.23195312 14.63816406 24.21390625 15.52632812 24.1953125 16.44140625 C24.14827374 18.62870848 24.08257009 20.81379816 24 23 C22.02 23 20.04 23 18 23 C17.67 17.72 17.34 12.44 17 7 C15.35 7 13.7 7 12 7 C11.67 12.28 11.34 17.56 11 23 C9.02 23 7.04 23 5 23 C4.67 18.05 4.34 13.1 4 8 C2.35 7.67 0.7 7.34 -1 7 C-2.99616554 8.99616554 -2.40983427 12.81701963 -2.5625 15.5625 C-2.60568359 16.27341797 -2.64886719 16.98433594 -2.69335938 17.71679688 C-2.79971777 19.47761912 -2.90038846 21.2387832 -3 23 C-4.98 23 -6.96 23 -9 23 C-9 15.74 -9 8.48 -9 1 C-6.36 1 -3.72 1 -1 1 C-0.67 0.67 -0.34 0.34 0 0 Z " fill="#0F1522" transform="translate(100,92)"/>
<path d="M0 0 C2.62191231 2.18492692 4.37338374 3.79698907 4.99609375 7.23828125 C5.11839076 11.40357341 5.04534492 14.28912296 2.375 17.625 C-1.00660187 20.7760381 -2.69960691 21.96897047 -7.25 22.5625 C-12.19613103 21.96896428 -15.15276994 19.69491708 -18.25 15.875 C-19.72617243 12.34858808 -19.84118895 9.98361 -19.375 6.1875 C-17.76179279 3.13392921 -16.34439098 0.94916434 -13.625 -1.1875 C-8.37822281 -2.64493811 -4.71876312 -2.53415056 0 0 Z " fill="#212532" transform="translate(147.375,93.8125)"/>
<path d="M0 0 C3.4375 1.9375 3.4375 1.9375 6 5 C6.78224916 8.09791389 6.90363276 10.77169756 7 14 C2.05 14.33 -2.9 14.66 -8 15 C-8 15.66 -8 16.32 -8 17 C-6.58344207 17.0272415 -5.16672955 17.04650467 -3.75 17.0625 C-2.96109375 17.07410156 -2.1721875 17.08570312 -1.359375 17.09765625 C0.90691002 17.00385306 2.8288895 16.63241063 5 16 C5 17.98 5 19.96 5 22 C0.82666517 24.08666742 -4.45442676 23.44849656 -9 23 C-12.67930728 20.90784488 -13.6704934 19.98851981 -15 16 C-15.5074473 12.19414525 -15.86096143 8.55165811 -13.953125 5.11328125 C-9.89989705 0.18980142 -6.26401718 -0.98783202 0 0 Z " fill="#161A26" transform="translate(80,92)"/>
<path d="M0 0 C0 2.64 0 5.28 0 8 C1.65 8 3.3 8 5 8 C5 9.65 5 11.3 5 13 C3.35 13 1.7 13 0 13 C0.33 16.63 0.66 20.26 1 24 C2.32 24.33 3.64 24.66 5 25 C5.042721 26.66611905 5.04063832 28.33382885 5 30 C4.67 30.33 4.34 30.66 4 31 C-1.79152098 30.63228438 -1.79152098 30.63228438 -4 30 C-6.49118953 26.2632157 -6.2065226 24.25548181 -6.125 19.8125 C-6.10695312 18.54019531 -6.08890625 17.26789063 -6.0703125 15.95703125 C-6.04710937 14.98121094 -6.02390625 14.00539063 -6 13 C-7.32 13 -8.64 13 -10 13 C-10 11.35 -10 9.7 -10 8 C-8.68 8 -7.36 8 -6 8 C-6 5.69 -6 3.38 -6 1 C-3 0 -3 0 0 0 Z " fill="#0E131F" transform="translate(40,85)"/>
<path d="M0 0 C1.2065625 0.0309375 1.2065625 0.0309375 2.4375 0.0625 C2.4375 2.0425 2.4375 4.0225 2.4375 6.0625 C0.4575 6.7225 -1.5225 7.3825 -3.5625 8.0625 C-3.8925 13.0125 -4.2225 17.9625 -4.5625 23.0625 C-6.8725 23.0625 -9.1825 23.0625 -11.5625 23.0625 C-11.5625 15.8025 -11.5625 8.5425 -11.5625 1.0625 C-8.9225 1.0625 -6.2825 1.0625 -3.5625 1.0625 C-2.5625 0.0625 -2.5625 0.0625 0 0 Z " fill="#2B303C" transform="translate(167.5625,91.9375)"/>
<path d="M0 0 C0 1.98 0 3.96 0 6 C-3.465 7.485 -3.465 7.485 -7 9 C-7.33 13.62 -7.66 18.24 -8 23 C-9.98 23 -11.96 23 -14 23 C-14 15.74 -14 8.48 -14 1 C-11.33333333 1 -8.66666667 1 -6 1 C-4 0 -4 0 0 0 Z " fill="#0D1420" transform="translate(63,92)"/>
<path d="M0 0 C0.91007812 0.00902344 1.82015625 0.01804687 2.7578125 0.02734375 C3.80582031 0.04474609 3.80582031 0.04474609 4.875 0.0625 C4.545 0.7225 4.215 1.3825 3.875 2.0625 C1.235 1.7325 -1.405 1.4025 -4.125 1.0625 C-4.125 8.3225 -4.125 15.5825 -4.125 23.0625 C-6.105 23.0625 -8.085 23.0625 -10.125 23.0625 C-10.455 21.0825 -10.785 19.1025 -11.125 17.0625 C-12.115 17.3925 -13.105 17.7225 -14.125 18.0625 C-20.51026912 18.51859065 -20.51026912 18.51859065 -23.0625 16.625 C-24.125 15.0625 -24.125 15.0625 -24.125 14.0625 C-18.845 14.0625 -13.565 14.0625 -8.125 14.0625 C-8.558125 11.9278125 -8.558125 11.9278125 -9 9.75 C-9.16242188 8.94949219 -9.32484375 8.14898437 -9.4921875 7.32421875 C-10.06978999 4.80948882 -10.06978999 4.80948882 -12.125 2.0625 C-11.34125 1.918125 -10.5575 1.77375 -9.75 1.625 C-2.04435484 -0.02620968 -2.04435484 -0.02620968 0 0 Z " fill="#F0F3F6" transform="translate(95.125,91.9375)"/>
<path d="M0 0 C0 0.66 0 1.32 0 2 C0.66 2.33 1.32 2.66 2 3 C2.66 3.66 3.32 4.32 4 5 C3.67 5.33 3.34 5.66 3 6 C1.9275 5.979375 0.855 5.95875 -0.25 5.9375 C-4.07738842 6.59097417 -4.07738842 6.59097417 -5.57421875 9.2890625 C-6.82225455 11.8280465 -7.96347516 14.36808671 -9 17 C-8.01 17.33 -7.02 17.66 -6 18 C-6.66 18 -7.32 18 -8 18 C-8 18.66 -8 19.32 -8 20 C-7.34 20.33 -6.68 20.66 -6 21 C-9 21 -9 21 -10.625 19.6875 C-13.52874867 16.12380845 -13.37309674 12.40254158 -13 8 C-11.34010291 4.85805194 -9.96866584 2.68744027 -7.0625 0.625 C-4.62504469 -0.11362282 -2.53293079 -0.14071838 0 0 Z " fill="#141A27" transform="translate(141,92)"/>
<path d="M0 0 C0.33 0 0.66 0 1 0 C1 7.26 1 14.52 1 22 C0.34 20.68 -0.32 19.36 -1 18 C-1.66 18.33 -2.32 18.66 -3 19 C-3 18.34 -3 17.68 -3 17 C-4.65 16.67 -6.3 16.34 -8 16 C-8 12.37 -8 8.74 -8 5 C-2.25 3.875 -2.25 3.875 0 5 C-0.2784375 4.0409375 -0.2784375 4.0409375 -0.5625 3.0625 C-0.706875 2.381875 -0.85125 1.70125 -1 1 C-0.67 0.67 -0.34 0.34 0 0 Z " fill="#F6F8FA" transform="translate(48,93)"/>
<path d="M0 0 C6.57692308 0.57692308 6.57692308 0.57692308 8 2 C8.1875 5.4375 8.1875 5.4375 8 9 C6 11 6 11 3 11.25 C0 11 0 11 -2 9 C-2.25 5.5 -2.25 5.5 -2 2 C-1.34 1.34 -0.68 0.68 0 0 Z " fill="#F5F8F8" transform="translate(137,98)"/>
<path d="M0 0 C4.06597681 -0.48404486 5.79892813 -0.1191537 9.375 2 C12.08713352 5.09958116 12.375 5.49728146 12.375 9.3125 C12.25125 10.529375 12.1275 11.74625 12 13 C9.03 13 6.06 13 3 13 C4.32 12.34 5.64 11.68 7 11 C5.19587357 7.73539027 4.16605307 6.11070205 1 4 C0.3125 1.875 0.3125 1.875 0 0 Z " fill="#161C28" transform="translate(74,92)"/>
<path d="M0 0 C4.40147657 0.50302589 6.75395419 2.02445801 10 5 C11.20272819 7.40545638 11.10071472 8.94996953 11.0625 11.625 C11.05347656 12.44226563 11.04445312 13.25953125 11.03515625 14.1015625 C11.02355469 14.72804688 11.01195312 15.35453125 11 16 C9 13 9 13 8 10 C7.34 10 6.68 10 6 10 C6 11.65 6 13.3 6 15 C5.01 15 4.02 15 3 15 C3.04125 13.88625 3.0825 12.7725 3.125 11.625 C3.41121859 7.95633975 3.41121859 7.95633975 1 6 C1 5.67 1 5.34 1 5 C0.67449498 3.33178677 0.34153937 1.66500443 0 0 Z " fill="#1B212D" transform="translate(141,92)"/>
<path d="M0 0 C1.32 0 2.64 0 4 0 C4 5.28 4 10.56 4 16 C2.35 16 0.7 16 -1 16 C-1.02685095 13.52076199 -1.04676547 11.0418116 -1.0625 8.5625 C-1.07506836 7.50192383 -1.07506836 7.50192383 -1.08789062 6.41992188 C-1.09653588 4.61306441 -1.05220011 2.80612397 -1 1 C-0.67 0.67 -0.34 0.34 0 0 Z " fill="#0B101E" transform="translate(120,98)"/>
<path d="M0 0 C0.226875 0.5775 0.45375 1.155 0.6875 1.75 C2.32281069 4.55338976 4.47226728 6.00442154 7 8 C7 8.66 7 9.32 7 10 C3.7 10 0.4 10 -3 10 C-3 7.69 -3 5.38 -3 3 C-3.66 2.67 -4.32 2.34 -5 2 C-2 0 -2 0 0 0 Z " fill="#333943" transform="translate(74,92)"/>
<path d="M0 0 C0.33 0 0.66 0 1 0 C1.33 2.31 1.66 4.62 2 7 C3.32 7.33 4.64 7.66 6 8 C6.042721 9.66611905 6.04063832 11.33382885 6 13 C5.67 13.33 5.34 13.66 5 14 C3.1875 13.94921875 3.1875 13.94921875 1 13.6875 C0.278125 13.60886719 -0.44375 13.53023437 -1.1875 13.44921875 C-1.785625 13.30097656 -2.38375 13.15273437 -3 13 C-3.33 12.34 -3.66 11.68 -4 11 C-3.34 10.67 -2.68 10.34 -2 10 C-2.33 8.68 -2.66 7.36 -3 6 C-2.34 6 -1.68 6 -1 6 C-0.67 4.02 -0.34 2.04 0 0 Z " fill="#222733" transform="translate(39,102)"/>
<path d="M0 0 C2.475 0.495 2.475 0.495 5 1 C5 4.96 5 8.92 5 13 C3.35 13 1.7 13 0 13 C0 8.71 0 4.42 0 0 Z " fill="#0B111D" transform="translate(157,101)"/>
<path d="M0 0 C0 2.31 0 4.62 0 7 C0.66 7.33 1.32 7.66 2 8 C0 9 0 9 -3 9 C-3.33 10.65 -3.66 12.3 -4 14 C-4.66 13.67 -5.32 13.34 -6 13 C-6.46666667 4.91111111 -6.46666667 4.91111111 -4.6875 1.4375 C-3 0 -3 0 0 0 Z " fill="#0D111E" transform="translate(71,95)"/>
<path d="M0 0 C0.99 0.33 1.98 0.66 3 1 C4.34351145 8.45038168 4.34351145 8.45038168 2.75 11 C1 12 1 12 -2 12 C-2.625 9.625 -2.625 9.625 -3 7 C-2.34 6.34 -1.68 5.68 -1 5 C-0.35232207 2.42938689 -0.35232207 2.42938689 0 0 Z " fill="#0B121E" transform="translate(147,101)"/>
<path d="M0 0 C0.33 0 0.66 0 1 0 C1 1.98 1 3.96 1 6 C-4.61 6 -10.22 6 -16 6 C-15.67 5.01 -15.34 4.02 -15 3 C-11.78548731 1.39274365 -8.56387464 1.94251815 -5 2 C-5.66 2.66 -6.32 3.32 -7 4 C-4.69 4.33 -2.38 4.66 0 5 C0 3.35 0 1.7 0 0 Z " fill="#2F333A" transform="translate(86,100)"/>
<path d="M0 0 C2.475 0.99 2.475 0.99 5 2 C5 3.65 5 5.3 5 7 C4.01 7.495 4.01 7.495 3 8 C3.33 9.65 3.66 11.3 4 13 C2.68 12.34 1.36 11.68 0 11 C0 7.37 0 3.74 0 0 Z " fill="#0B101C" transform="translate(34,101)"/>
<path d="M0 0 C0 1.98 0 3.96 0 6 C-1.98 6.33 -3.96 6.66 -6 7 C-6.66 5.68 -7.32 4.36 -8 3 C-4.93882432 0.37613513 -4.26826873 0 0 0 Z " fill="#191D28" transform="translate(63,92)"/>
<path d="M0 0 C2.64 0.33 5.28 0.66 8 1 C8 1.99 8 2.98 8 4 C7.01 4.495 7.01 4.495 6 5 C5.67 5.99 5.34 6.98 5 8 C2.525 7.01 2.525 7.01 0 6 C0.99 4.68 1.98 3.36 3 2 C2.34 1.67 1.68 1.34 1 1 C0.67 1.66 0.34 2.32 0 3 C0 2.01 0 1.02 0 0 Z " fill="#171C26" transform="translate(100,92)"/>
<path d="M0 0 C0.99 0.66 1.98 1.32 3 2 C3.1875 5.125 3.1875 5.125 3 8 C0.03 8 -2.94 8 -6 8 C-5.195625 7.236875 -4.39125 6.47375 -3.5625 5.6875 C-0.83200976 3.20569102 -0.83200976 3.20569102 0 0 Z " fill="#0A0F19" transform="translate(83,97)"/>
<path d="M0 0 C1.4540625 0.0309375 1.4540625 0.0309375 2.9375 0.0625 C2.9375 3.0325 2.9375 6.0025 2.9375 9.0625 C0.9375 6.0625 0.9375 6.0625 -0.0625 3.0625 C-0.7225 3.0625 -1.3825 3.0625 -2.0625 3.0625 C-2.0625 4.7125 -2.0625 6.3625 -2.0625 8.0625 C-3.0525 8.0625 -4.0425 8.0625 -5.0625 8.0625 C-4.046875 0.08258929 -4.046875 0.08258929 0 0 Z " fill="#282E39" transform="translate(149.0625,98.9375)"/>
<path d="M0 0 C0 2.64 0 5.28 0 8 C-0.33 6.68 -0.66 5.36 -1 4 C-1.66 4 -2.32 4 -3 4 C-3.66 5.32 -4.32 6.64 -5 8 C-5.33 8 -5.66 8 -6 8 C-6 5.69 -6 3.38 -6 1 C-3 0 -3 0 0 0 Z " fill="#151B24" transform="translate(40,85)"/>
<path d="M0 0 C1.65 0.33 3.3 0.66 5 1 C5.33 1.99 5.66 2.98 6 4 C3.36 4 0.72 4 -2 4 C-1.34 2.68 -0.68 1.36 0 0 Z " fill="#EBEEF3" transform="translate(74,97)"/>
<path d="M0 0 C0.66 0 1.32 0 2 0 C2 0.66 2 1.32 2 2 C2.66 2.33 3.32 2.66 4 3 C4.66 3.66 5.32 4.32 6 5 C5 6 5 6 1.4375 6.0625 C0.303125 6.041875 -0.83125 6.02125 -2 6 C-1.34 4.02 -0.68 2.04 0 0 Z " fill="#09101E" transform="translate(139,92)"/>
<path d="M0 0 C0.99 0 1.98 0 3 0 C3 1.98 3 3.96 3 6 C1.68 6 0.36 6 -1 6 C-1.042721 4.33388095 -1.04063832 2.66617115 -1 1 C-0.67 0.67 -0.34 0.34 0 0 Z " fill="#0E1017" transform="translate(167,92)"/>
<path d="M0 0 C0.99 0 1.98 0 3 0 C3 1.65 3 3.3 3 5 C1.68 4.67 0.36 4.34 -1 4 C-0.67 2.68 -0.34 1.36 0 0 Z " fill="#131720" transform="translate(42,110)"/>
</svg>
